# xmcd
# 
# Track frame offsets:
#     150
#     13512
#     29572
#     47712
#     63712
#     73972
#     94902
#     106402
#     118535
#     138225
# 
# Disc length: 2015
# 
# Revision: 6
# Processed by: cddbd v1.5.2PL0 Copyright (c) Steve Scherf et al.
# Submitted via: fre:ac v1.0.27
# 
DISCID=9007dd0a
DTITLE=Willie Nelson - Always On My Mind
DYEAR=1982
DGENRE=Country
TTITLE0=Do Right Woman, Do Right Man
TTITLE1=Always On My Mind
TTITLE2=A Whiter Shade Of Pale
TTITLE3=Let It Be Me
TTITLE4=Staring Each Other Down
TTITLE5=Bridge Over Troubled Water
TTITLE6=Old Fords And A National Stone
TTITLE7=Permanently Lonely
TTITLE8=Last Thing I Needed First Thing This Morning
TTITLE9=The Party's Over
EXTD=YEAR: 1982
EXTT0=
EXTT1=
EXTT2=
EXTT3=
EXTT4=
EXTT5=
EXTT6=
EXTT7=
EXTT8=
EXTT9=
PLAYORDER=
